<?xml version="1.0" standalone="no"?>
<!DOCTYPE svg PUBLIC "-//W3C//DTD SVG 20010904//EN"
 "http://www.w3.org/TR/2001/REC-SVG-20010904/DTD/svg10.dtd">
<svg version="1.0" xmlns="http://www.w3.org/2000/svg"
 width="512.000000pt" height="512.000000pt" viewBox="0 0 512.000000 512.000000"
 preserveAspectRatio="xMidYMid meet">
<metadata>
Created by potrace 1.14, written by Peter Selinger 2001-2017
</metadata>
<g transform="translate(0.000000,512.000000) scale(0.100000,-0.100000)"
fill="#000000" stroke="none">
<path d="M3632 4390 c-4 -3 -7 -52 -8 -110 -1 -107 -11 -295 -19 -340 -2 -14
-6 -47 -10 -75 -13 -102 -15 -114 -80 -395 -6 -28 -87 -275 -100 -305 -7 -16
-20 -50 -30 -75 -58 -144 -175 -368 -270 -515 -51 -79 -181 -256 -224 -305
-12 -14 -41 -47 -64 -75 -53 -63 -272 -280 -309 -306 l-28 -20 0 26 c0 63 -62
144 -127 166 -20 6 -102 12 -187 13 -94 1 -159 6 -172 14 -40 22 -41 102 -3
123 11 5 47 12 82 15 78 8 183 43 247 84 103 66 191 189 223 311 21 81 19 258
-4 341 -49 175 -163 294 -349 365 -39 15 -95 18 -398 21 -397 4 -414 2 -492
-65 -141 -121 -109 -353 60 -431 45 -21 71 -26 154 -27 95 -2 101 -3 123 -29
13 -15 23 -33 23 -41 0 -24 -22 -63 -39 -71 -9 -4 -320 -8 -691 -9 -579 -2
-681 -4 -718 -18 -204 -73 -268 -329 -122 -486 22 -23 65 -54 97 -69 l58 -27
460 -1 c253 -1 472 -3 487 -3 34 -1 84 -51 90 -90 10 -70 -34 -118 -120 -131
-110 -18 -183 -64 -225 -144 -18 -35 -22 -62 -25 -173 l-4 -131 54 -4 c103 -6
98 -11 98 108 0 153 16 176 132 195 33 5 78 19 99 29 128 66 177 216 114 347
-29 59 -70 97 -135 126 -43 20 -66 21 -527 22 -470 1 -483 1 -510 21 -93 69
-97 181 -8 249 l39 29 685 1 686 0 48 24 c166 81 166 316 -1 401 -35 18 -62
23 -146 25 -83 1 -108 5 -129 21 -65 48 -63 143 5 184 32 19 48 20 373 18
l340 -3 57 -27 c81 -38 152 -108 190 -187 28 -59 32 -77 35 -172 4 -159 -31
-257 -122 -337 -64 -56 -122 -81 -226 -95 -142 -20 -193 -53 -234 -150 -29
-71 -11 -168 44 -229 52 -59 99 -72 274 -73 129 -2 161 -5 174 -18 17 -17 25
-117 13 -152 -5 -12 -55 -53 -112 -92 -226 -155 -504 -296 -753 -382 -113 -40
-365 -111 -392 -111 -8 0 -13 15 -13 40 l0 40 -75 0 -75 0 0 -55 c0 -30 -1
-55 -2 -55 -2 0 -28 -4 -59 -9 -31 -5 -96 -13 -145 -17 -49 -4 -100 -8 -114
-9 -14 -2 -154 -3 -312 -4 l-288 -1 0 -188 0 -188 953 2 c523 0 979 4 1012 8
239 27 425 59 580 100 127 34 260 74 298 90 18 8 75 31 127 52 191 75 394 181
580 301 83 54 253 176 278 200 7 7 34 29 59 50 98 80 297 274 385 377 18 22
47 56 64 75 98 114 236 315 335 486 169 295 302 645 372 981 26 124 31 152 47
269 19 133 20 161 27 422 l6 263 -743 -3 c-408 -1 -745 -4 -748 -7z"/>
</g>
</svg>
